<?xml version="1.0" encoding="utf-8"?>
<!-- Generator: Adobe Illustrator 15.0.0, SVG Export Plug-In . SVG Version: 6.00 Build 0)  -->
<!DOCTYPE svg PUBLIC "-//W3C//DTD SVG 1.1//EN" "http://www.w3.org/Graphics/SVG/1.1/DTD/svg11.dtd">
<svg version="1.1" xmlns="http://www.w3.org/2000/svg" xmlns:xlink="http://www.w3.org/1999/xlink" x="0px" y="0px" width="612px"
	 height="792px" viewBox="0 0 612 792" enable-background="new 0 0 612 792" xml:space="preserve">
<g id="Layer_1">
	<g id="XMLID_3_">
		<g>
			<path fill="#242359" d="M562.83,527.25c0,0.08,0,0.16,0,0.24c-2.4,0-4.8,0-7.2,0c-6.07-11.04-11.93-22.311-17.28-34.08
				c-5.5,11.54-11.22,22.859-17.04,34.08c-2.399,0-4.8,0-7.199,0c7.439-12.88,13.859-26.78,21.359-39.601
				c2.101-0.14,4.78,0.301,6.48-0.239C548.79,500.97,555.89,514.03,562.83,527.25z"/>
			<path fill="#242359" d="M444.99,521.49c0,1.439,0,2.88,0,4.319c-3.33,1.551-7.87,1.891-12.24,2.4c-1.76,0-3.52,0-5.28,0
				c-9.84-0.7-17.55-4.56-21.12-11.04c-8.52-15.46,6.54-30,23.091-30c0.06,0,0.13,0,0.189,0c1.84,0,3.68,0,5.521,0
				c3.39,0.45,7.08,0.6,9.84,1.68c0,1.601,0,3.2,0,4.801c-3.69-1.351-7.83-2.25-12.721-2.4c-11.569,0.43-19.329,4.67-21.359,14.64
				C408.9,524.42,431.03,526.93,444.99,521.49z"/>
			<path fill="#242359" d="M335.55,527.49c-2.319,0-4.64,0-6.96,0c-7.77-6.311-9.27-18.891-25.44-16.8c0,5.6,0,11.199,0,16.8
				c-2.16,0-4.32,0-6.48,0c0.16-13.12-0.32-26.88,0.24-39.601c12.689,0.271,27.89-1.97,32.16,6.721
				c2.399,9.22-4.271,13.27-11.521,14.399C325.47,513.09,330.37,521.47,335.55,527.49z M303.15,506.61
				c9.84,0.229,20.93,0.47,19.68-9.601c-2.13-6.02-11.33-4.99-19.44-5.04c-0.28,0.04-0.26,0.38-0.24,0.721
				C303.15,497.33,303.15,501.97,303.15,506.61z"/>
			<path fill="#242359" d="M221.79,523.41c0,1.359,0,2.72,0,4.08c-9.6,0-19.2,0-28.8,0c0.16-13.12-0.32-26.88,0.24-39.601
				c9.12,0,18.24,0,27.36,0c0,1.36,0,2.721,0,4.08c-7.12,0-14.24,0-21.36,0c0,4.4,0,8.8,0,13.2c6.08,0.561,13.2,0.08,19.68,0.24
				c0,1.359,0,2.72,0,4.08c-6.48,0-12.96,0-19.44,0c-0.56,4.08-0.08,9.2-0.24,13.68C206.27,523.73,214.35,523.25,221.79,523.41z"/>
			<path fill="#242359" d="M117.39,521.49c0,1.439,0,2.88,0,4.319c-3.33,1.551-7.87,1.891-12.24,2.4c-1.76,0-3.52,0-5.28,0
				c-12.57-1.19-21.46-6.06-23.28-18c0-1.2,0-2.4,0-3.6c0.08,0,0.16,0,0.24,0c1.63-13.25,11.86-17.9,25.2-19.44
				c1.84,0,3.68,0,5.52,0c3.4,0.44,7.05,0.64,9.84,1.68c0,1.601,0,3.2,0,4.801c-3.69-1.351-7.83-2.25-12.72-2.4
				c-11.57,0.43-19.33,4.67-21.36,14.64C81.29,524.43,103.43,526.93,117.39,521.49z"/>
		</g>
		<g>
		</g>
	</g>
	<path d="M535.584,528.083"/>
	<g id="XMLID_2_">
		<g>
			<radialGradient id="SVGID_1_" cx="323.3838" cy="384.2402" r="182.5286" gradientUnits="userSpaceOnUse">
				<stop  offset="0" style="stop-color:#FFFFFF"/>
				<stop  offset="0.2182" style="stop-color:#982583"/>
				<stop  offset="0.2552" style="stop-color:#8E257F"/>
				<stop  offset="0.504" style="stop-color:#54266A"/>
				<stop  offset="0.684" style="stop-color:#30245C"/>
				<stop  offset="0.7758" style="stop-color:#202257"/>
				<stop  offset="1" style="stop-color:#000000"/>
			</radialGradient>
			<path fill="url(#SVGID_1_)" d="M562.946,330.396c-0.15,0.21-0.301,0.42-0.45,0.62c-0.28,0.39-0.561,0.78-0.84,1.17
				c-10.08,13.26-25.221,25.4-42.59,36.6c-17.101,11.02-37.75,21.57-60.08,31.06c-22.141,9.42-46.74,18.45-74.811,26.399
				c-26.92,7.631-61.77,15.5-93.74,18.69c-27.96,2.79-48.83,2.04-63.79-1.01c-14.92-3.05-24.38-8.71-24.94-17.53
				c-0.3-4.7,2.15-10.93,8.71-17.38c12.28-12.07,34.07-23.01,60.8-30.83c13.11-3.84,31.5-7.63,43.46-7.23
				c-8.32-0.74-23.14,1.16-36.41,4.12c-13.09,2.92-24.92,6.62-34.82,10.25c-20.34,7.47-38.49,16.94-50.76,26.57
				c-6.61,5.19-12.21,11.09-15,16.24c-2.71,4.99-2.99,9.32-2.02,12.81c1.99,7.19,9.24,12.08,19.88,15.45
				c10.5,3.33,25.04,5.32,43.48,5.47c18.57,0.15,41.63-1.449,70.3-5.989c29.109-4.61,55.609-10.79,79.52-17.471
				c23.87-6.66,45.601-13.779,66.17-21.59c0.48-0.16,0.49-0.16,0.15,0.04c-24.23,9.15-49.79,17.53-78.92,25.2
				c-28.24,7.43-63.21,14.78-95.39,18.26c-57.5,6.23-92.25,1.33-106.93-10.859c-7.68-6.37-9.2-14.98,0.57-28.431
				c4.73-6.51,12.65-12.74,21.04-18.43c16.78-11.4,37.22-21.3,63.11-30.11c13.14-4.47,27.03-8.43,43.28-11.38
				c17.73-3.23,30.24-3.55,39.05-2.62c8.99,0.95,14.08,3.21,14.301,7.96c1.47-8.22-11.75-11.5-31.83-10.74
				c-11.011,0.41-25.53,2.28-39.811,5.14c-13.5,2.7-26.51,6.2-37.8,9.69c-22.2,6.86-42.82,15.31-60.17,24.35
				c-17.48,9.12-32.64,19.12-42.98,29.8c-11.69,12.09-13.87,21.73-11.96,28.94c1.96,7.399,8.42,12.8,17.57,16.909
				c18.7,8.41,49.81,11.381,94.31,8.681c0.37-0.08,0.35,0,0.14,0.04c-52.58,3.47-86.22-1.181-104.06-12.62
				c-8.68-5.57-13.54-13.351-10.77-23.82c3.04-11.5,17.19-25.66,33.95-36.95c16.38-11.03,38.29-21.919,61.86-31.07
				c23.95-9.31,51.87-17.91,84.35-23.86c35.029-6.42,59.25-6.17,70.67-1.86c5.63,2.12,9.979,5.34,8.729,10.49
				c-1.35,5.58-9.62,12.57-20.729,17.76c9.12-4.03,16.97-8.97,21.85-14.17c5.28-5.63,5.601-10.23,3.91-13.45
				c-3.31-6.3-14.939-9.75-30.74-10.78c-16.569-1.08-40.05,0.44-70.169,6.31c-26.88,5.24-51.03,12.12-72.28,19.48
				c-41.46,14.35-78.48,32.33-103.85,51.93c-13.09,10.11-23.82,21.62-28.36,31.95c-4.29,9.74-3.41,17.29,0.7,23.49
				c-0.05,0.13-0.31,0.189-0.26,0.109c-4.83-7.319-5.49-16.399,1.18-28.529c7.08-12.881,22.36-25.91,39.36-37.051
				c33.61-22.02,79.65-41.959,135.33-56.85c14.5-3.87,30.13-7.5,46.7-10.21c16.979-2.78,31.689-4.44,44.56-5.07
				c24.53-1.18,42.16,0.89,52.38,5.71c9.561,4.5,17.17,12.67,1.271,26.63c-6.86,6.02-16.17,11.44-27.42,16.22
				c-11.181,4.75-23.391,9.1-40.29,12.15c14.56-2.18,26.92-5.89,37.649-9.74c20.771-7.46,38.771-17.31,49.301-27.99
				c5.42-5.49,7.989-11.03,8.14-15.36c0.28-7.96-7.16-13.23-18.23-16.74c-11.069-3.5-27.25-5.01-46.84-4.52
				c-20.47,0.51-49.77,3.99-78.66,9.92c-27.51,5.64-52.78,12.53-74.97,19.76c-45.17,14.73-83.48,32.01-114.78,50.58
				c36.86-22.13,82.33-41.86,138.08-58.18c27.56-8.07,60.86-16,94.629-20.41c31.91-4.16,55.101-4.47,73.051-2.44
				c17.27,1.95,30.3,6.3,35.76,13.42c5.24,6.83,5.109,17.86-11.391,32.07c-13.979,12.03-34.979,23.08-60.729,31.72
				c-12.87,4.311-29.08,8.73-45.86,10.761c-15.17,1.84-24.189,0.96-30.28-1.38c7.68,4.52,28.32,4.89,58.42-1.641
				c24.87-5.39,47.989-13.65,65.489-21.62c26.44-12.05,51.16-27.83,58.66-44.3c2.181-4.79,2.63-9.03,1.71-12.62
				c-3.56-13.97-24.739-21.23-56.91-23.45c-15.75-1.09-36.13-0.69-60.31,1.79c-24.57,2.53-55.66,7.65-82.23,13.85
				c-0.37,0.08-0.36-0.01-0.14-0.04c30.71-7.24,66.58-12.93,94.43-15.23c26.91-2.23,48.29-1.84,64.631,0.33
				c16.84,2.23,28.909,6.08,37.119,12.03c8.03,5.83,11.4,13.96,5.79,25.3c-6.409,12.97-23.029,25.51-41.189,35.9
				c-18.7,10.7-41.021,20.34-66.19,28.47c-12.68,4.09-27.33,8.18-42.68,11.29c-35.18,7.11-57.93,6.11-66.69,1.02
				c-4.42-2.569-6.42-7.439,1.05-14.17c-0.09-0.3-0.48,0.271-0.26,0.11c-7.14,5.06-8,10.76-6.49,13.59c3.5,6.55,16.62,9.15,36,8.92
				c9.98-0.13,22.03-1.02,36.65-3.479c28.811-4.83,53.271-11.67,75.181-19.32c21.649-7.54,41.279-16.11,57.699-24.85
				c16.931-9.01,31.95-18.91,43.101-29.48c11.8-11.19,17.29-22.42,17.14-30.44c-0.3-15.94-17.04-25.19-42.43-30.41
				c-0.101-0.12-0.101-0.13,0.26-0.11c15,3.04,27.09,7.47,34.64,13.73c7.53,6.25,11.351,14.25,7.94,25.03
				c-3.73,11.82-17.44,25.88-33.89,37.35c-16.79,11.71-36.95,22.24-59.49,31.73c-22.54,9.49-48.93,18.53-78.76,25.72
				c-15.54,3.739-33.131,7.04-49.28,9.109c-15.39,1.97-28.39,2.53-38.57,2.2c-20.08-0.67-34.94-4.4-36.24-13
				c-0.7-4.67,4.07-11.64,12.8-17.61c8.37-5.72,19.1-10.669,32.41-15.01c-22.92,7.06-40.88,16.07-50.81,27.12
				c-10.25,11.41-4.88,18.71,3.19,22.76c8.6,4.32,22.19,6.561,41.86,6.48c18.84-0.07,45.95-2.87,76.12-9.101
				c26.95-5.56,51.07-12.5,73.21-20.04c43.5-14.8,80.4-32.3,108.891-51.77c14.369-9.81,26.619-20.48,35.149-31.99
				C562.556,330.707,562.855,330.197,562.946,330.396z"/>
		</g>
		<g>
		</g>
	</g>
	<rect id="_x3C_Slice_x3E_" x="70" y="281" fill="none" width="503" height="256"/>
</g>
<g id="Layer_2">
</g>
<g id="Layer_3">
</g>
<g id="Layer_4">
</g>
</svg>
